<svg width="1558" height="211.00000000000003" xmlns="http://www.w3.org/2000/svg" version="1.1">

 <g>
  <title>Layer 1</title>
  <path id="svg_1" fill="#00A65E" d="m526,0c111.03912,0 111.03912,0 127.25,5.625c0.73541,0.25233 1.47082,0.50467 2.22852,0.76465c17.80212,6.48121 30.16331,18.83255 38.52148,35.61035c0.99,2.475 0.99,2.475 2,5c0.495,-23.265 0.495,-23.265 1,-47c23.1,0 46.2,0 70,0c2.31077,5.77692 4.52584,11.32874 6.45093,17.20166c0.21401,0.64992 0.42803,1.29984 0.64853,1.96945c0.69779,2.12166 1.39101,4.24477 2.08413,6.36795c0.4973,1.51534 0.99487,3.0306 1.49269,4.54576c1.31963,4.01915 2.63523,8.03961 3.94994,12.06037c1.08353,3.31199 2.16948,6.62319 3.25548,9.93436c7.74894,23.62615 15.4702,47.26145 23.1183,70.92045c2.02416,-3.03624 2.95522,-5.53308 4.08447,-8.98877c0.40922,-1.2447 0.81844,-2.48939 1.24005,-3.7718c0.44661,-1.37405 0.89312,-2.74813 1.33954,-4.12224c0.46923,-1.43309 0.93887,-2.86604 1.40888,-4.29888c1.26148,-3.84941 2.51734,-7.70064 3.77227,-11.5522c1.29756,-3.97878 2.60073,-7.95572 3.90333,-11.93286c4.38671,-13.39952 8.75623,-26.80464 13.11697,-40.21264c1.13977,-3.50443 2.28039,-7.00858 3.42111,-10.5127c1.37165,-4.21384 2.73861,-8.42916 4.10254,-12.64551c0.60715,-1.86901 1.21441,-3.73799 1.82178,-5.60693c0.27181,-0.84447 0.54362,-1.68895 0.82367,-2.55901c1.8519,-5.68297 1.8519,-5.68297 2.96539,-6.79646c23.1,0 46.2,0 70,0c0,69.3 0,138.6 0,210c-20.13,0 -40.26,0 -61,0c-0.3171,-34.14138 0.80808,-65.78649 8.3833,-99.11694c0.63105,-2.95014 1.12954,-5.90621 1.6167,-8.88306c-0.246,0.81668 -0.246,0.81668 -0.49696,1.64985c-3.98728,13.23682 -7.97658,26.47303 -11.96807,39.70858c-1.93018,6.40058 -3.85973,12.80135 -5.78766,19.20261c-1.85928,6.17311 -3.72033,12.3457 -5.58261,18.51791c-0.71154,2.35942 -1.42244,4.71902 -2.1327,7.07882c-0.99198,3.29541 -1.9862,6.59014 -2.98097,9.88471c-0.29563,0.98399 -0.59126,1.96798 -0.89585,2.98178c-0.27063,0.89465 -0.54125,1.7893 -0.82008,2.71106c-0.23506,0.77984 -0.47012,1.55967 -0.7123,2.36314c-0.6228,1.90154 -0.6228,1.90154 -1.6228,3.90154c-18.15,0 -36.3,0 -55,0c-6.89292,-20.67877 -6.89292,-20.67877 -9.15967,-28.30518c-0.39633,-1.32067 -0.39633,-1.32067 -0.80067,-2.66803c-0.84657,-2.82325 -1.68927,-5.64765 -2.53185,-8.4721c-0.59653,-1.99217 -1.1933,-3.98427 -1.79031,-5.97629c-1.55101,-5.17758 -3.09871,-10.35615 -4.64566,-15.53494c-1.587,-5.31067 -3.17722,-10.62038 -4.76715,-15.93018c-3.10467,-10.37017 -6.20583,-20.74138 -9.30469,-31.11328c0,2.57898 0.61183,4.81518 1.20703,7.32813c3.36845,14.48657 6.27988,28.86626 7.79297,43.67187c0.14466,1.34566 0.14466,1.34566 0.29224,2.71851c1.02454,11.0109 0.81642,22.04772 0.77026,33.09399c-0.02062,6.99187 -0.04125,13.98375 -0.0625,21.1875c-20.13,0 -40.26,0 -61,0c-0.33,-32.01 -0.66,-64.02 -1,-97c-2.64,5.28 -5.28,10.56 -8,16c-14.75136,18.01038 -32.94666,27.22583 -56,30c-5.08661,0.31314 -10.15452,0.38156 -15.25,0.375c-0.68121,-0.00021 -1.36242,-0.00042 -2.06427,-0.00064c-15.87844,-0.04919 -30.75347,-1.93334 -43.20135,-12.7728c-3.26499,-3.52275 -5.85504,-7.59532 -8.48438,-11.60156c3.39012,8.00682 8.23305,17.25985 16.42363,21.15158c7.04594,3.38938 7.04594,3.38938 8.45941,7.27738c0.27537,3.00272 0.24349,5.86436 0.09352,8.87573c-0.01007,0.95721 -0.02014,1.91442 -0.03052,2.90063c-0.05211,3.55779 -0.19173,7.11386 -0.32104,10.66968c-0.20625,7.96125 -0.4125,15.9225 -0.625,24.125c-20.13,0 -40.26,0 -61,0c0,-69.3 0,-138.6 0,-210zm61,55c0,16.5 0,33 0,50c21.83134,1.38825 21.83134,1.38825 43,-5c0.86625,-0.55688 1.7325,-1.11375 2.625,-1.6875c5.2472,-5.10911 7.06496,-11.35955 7.625,-18.5c-0.45265,-6.90294 -2.01381,-13.98969 -7.25,-18.8125c-7.01847,-4.54517 -12.25602,-6.15941 -20.60937,-6.09766c-0.6447,0.00101 -1.28939,0.00202 -1.95362,0.00306c-2.39569,0.00521 -4.79135,0.01917 -7.18701,0.0321c-5.3625,0.02063 -10.725,0.04125 -16.25,0.0625zm-27,74c1,2 1,2 1,2l-1,-2z"/>
  <path id="svg_2" fill="#00A65F" d="m1383,0c132.15337,0 132.15337,0 156,23c16.09526,18.29461 20.37809,41.26615 19,65c-2.34099,18.52515 -11.03926,35.90506 -25.37891,48.00781c-11.58419,8.59053 -24.32893,12.52926 -38.62109,11.99219c0,0.66 0,1.32 0,2c1.18759,-0.13632 1.18759,-0.13632 2.39917,-0.27539c3.59579,-0.4111 7.19205,-0.8179 10.78833,-1.22461c1.24588,-0.14309 2.49176,-0.28617 3.77539,-0.43359c1.20205,-0.13536 2.4041,-0.27071 3.64258,-0.41016c1.10497,-0.12568 2.20994,-0.25137 3.34839,-0.38086c2.7056,-0.2446 5.3321,-0.32839 8.04614,-0.27539c0.46261,0.90017 0.92522,1.80034 1.40186,2.72778c10.60925,20.66974 10.60925,20.66974 21.34814,41.27222c0.36851,0.70165 0.73702,1.40331 1.1167,2.12622c2.31243,4.38035 4.71868,8.69742 7.18896,12.99097c0.94434,1.88281 0.94434,1.88281 0.94434,3.88281c-22.11,0 -44.22,0 -67,0c-13.88198,-25.4503 -13.88198,-25.4503 -19.1875,-36.1875c-0.83628,-1.67353 -0.83628,-1.67353 -1.68945,-3.38086c-3.98115,-8.00593 -3.98115,-8.00593 -5.12305,-11.43164c-6.93,0 -13.86,0 -21,0c0,16.83 0,33.66 0,51c-20.13,0 -40.26,0 -61,0c0,-69.3 0,-138.6 0,-210zm61,55c0,16.5 0,33 0,50c24.40595,1.6869 24.40595,1.6869 46.74609,-7.60547c5.83356,-6.33717 6.72593,-12.69637 6.5625,-21.13672c-0.60778,-6.41636 -2.82086,-11.1859 -7.49609,-15.63281c-9.10298,-6.68816 -19.03223,-5.99297 -29.875,-5.8125c-7.88906,0.09281 -7.88906,0.09281 -15.9375,0.1875z"/>
  <path id="svg_3" fill="#00A55E" d="m162,0c49.83,0 99.66,0 151,0c0,17.82 0,35.64 0,54c-1.82239,1.82239 -4.34756,1.11998 -6.77248,1.12442c-0.82862,-0.0036 -1.65724,-0.00719 -2.51097,-0.01089c-1.30232,0.00021 -1.30232,0.00021 -2.63095,0.00044c-2.88403,-0.0007 -5.76799,-0.0085 -8.65201,-0.01631c-1.99397,-0.00187 -3.98794,-0.00329 -5.98191,-0.00429c-5.25914,-0.00383 -10.51824,-0.01366 -15.77736,-0.02471c-5.36214,-0.01021 -10.72428,-0.01479 -16.08643,-0.01983c-10.52931,-0.01074 -21.05859,-0.02834 -31.58789,-0.04883c0,7.59 0,15.18 0,23c24.75,0 49.5,0 75,0c0,17.82 0,35.64 0,54c-24.75,0 -49.5,0 -75,0c0,7.59 0,15.18 0,23c2.69084,-0.00524 5.38167,-0.01047 8.15405,-0.01587c8.86887,-0.01653 17.73774,-0.0276 26.60661,-0.03594c5.37968,-0.00523 10.75933,-0.01233 16.139,-0.02363c5.18709,-0.01083 10.37416,-0.01684 15.56126,-0.01944c1.98364,-0.00185 3.96728,-0.00547 5.95091,-0.01085c2.76826,-0.00721 5.53646,-0.00826 8.30472,-0.0078c1.24293,-0.00539 1.24293,-0.00539 2.51097,-0.01089c5.65843,0.01037 5.65843,0.01037 6.77248,1.12442c0,17.82 0,35.64 0,54c-49.83,0 -99.66,0 -151,0c0,-69.3 0,-138.6 0,-210z"/>
  <path id="svg_4" fill="#00A65E" d="m416,0c0.66,0 1.32,0 2,0c8.09469,16.57446 16.13552,33.16508 23.85889,49.9165c4.74374,10.27163 9.59094,20.4927 14.45361,30.7085c5.96295,12.52981 11.91069,25.06626 17.8125,37.625c0.4842,1.03027 0.4842,1.03027 0.97818,2.08136c0.32278,0.68681 0.64556,1.37362 0.97812,2.08124c0.65258,1.38851 1.30516,2.77702 1.95776,4.16553c0.32287,0.68697 0.64573,1.37395 0.97838,2.08175c3.46129,7.36249 6.93644,14.71842 10.41219,22.0741c1.06075,2.24566 2.12064,4.49173 3.18023,6.73794c3.26813,6.92682 6.54119,13.85112 9.8346,20.76596c1.49707,3.14509 2.98988,6.2922 4.48205,9.43961c0.70908,1.49282 1.42015,2.98471 2.1333,4.47559c0.98515,2.05988 1.96339,4.12291 2.94019,6.18676c0.55688,1.1691 1.11375,2.3382 1.6875,3.54273c1.3125,3.11743 1.3125,3.11743 2.3125,8.11743c-40.59,0 -81.18,0 -123,0c1.19325,-5.96624 2.26819,-11.30778 4.06299,-17.01025c0.19536,-0.62569 0.39073,-1.25138 0.59201,-1.89603c0.63358,-2.02499 1.27434,-4.04762 1.91531,-6.07028c0.446,-1.42046 0.89154,-2.84107 1.33664,-4.26181c1.16265,-3.70686 2.33145,-7.41175 3.50162,-11.11624c1.19701,-3.79337 2.3881,-7.5886 3.57971,-11.38367c2.3315,-7.42239 4.6695,-14.84271 7.01172,-22.26172c-5.01725,9.22596 -9.76479,18.50319 -14.125,28.0625c-0.82599,1.79381 -1.652,3.58761 -2.47864,5.38112c-0.86477,1.87729 -1.72781,3.75537 -2.5907,5.63353c-2.85304,6.20422 -5.73105,12.39684 -8.61419,18.58713c-0.93055,1.99975 -1.8582,4.00082 -2.78571,6.00198c-0.56739,1.21939 -1.13493,2.43871 -1.70264,3.65796c-0.74781,1.61008 -0.74781,1.61008 -1.51074,3.25268c-1.19238,2.4231 -1.19238,2.4231 -2.19238,3.4231c-1.90244,0.09391 -3.80838,0.11744 -5.71313,0.11353c-1.2212,-0.00008 -2.44239,-0.00016 -3.70058,-0.00023c-1.34257,-0.00511 -2.68513,-0.01033 -4.0277,-0.01564c-1.3662,-0.00187 -2.73241,-0.00329 -4.09861,-0.00429c-3.602,-0.00383 -7.20395,-0.01366 -10.80593,-0.02471c-3.67309,-0.01021 -7.34618,-0.01479 -11.01928,-0.01983c-7.21161,-0.01074 -14.42319,-0.02781 -21.63477,-0.04883c1.53845,-4.74877 3.41088,-9.20849 5.57031,-13.70312c0.353,-0.74209 0.706,-1.48418 1.06969,-2.24875c0.76099,-1.59882 1.52355,-3.19689 2.28752,-4.79428c1.63397,-3.41652 3.26039,-6.8366 4.88738,-10.25644c0.83772,-1.76059 1.67585,-3.52099 2.51437,-5.28119c3.93792,-8.26784 7.83955,-16.55248 11.73323,-24.84122c1.31349,-2.79442 2.62737,-5.58865 3.94141,-8.38281c0.32605,-0.69336 0.6521,-1.38671 0.98803,-2.10108c3.82656,-8.13484 7.66749,-16.26288 11.50806,-24.39111c5.83992,-12.36015 11.66899,-24.72535 17.48572,-37.09644c3.78264,-8.04484 7.57131,-16.08676 11.37365,-24.12231c8.3046,-17.55278 16.55214,-35.12758 24.64063,-52.78125zm0,130c1,2 1,2 1,2l-1,-2z"/>
  <path id="svg_5" fill="#00A65E" d="m1028,0c3.3294,3.08535 4.96374,6.7133 6.85156,10.77734c0.37114,0.78544 0.74227,1.57088 1.12465,2.38012c1.22234,2.59053 2.43554,5.18524 3.64879,7.78004c0.85462,1.81555 1.70985,3.63082 2.56567,5.4458c1.75599,3.72632 3.50848,7.45426 5.25806,11.18359c2.33239,4.97023 4.67549,9.9353 7.02393,14.89795c7.19344,15.20397 14.35937,30.42087 21.51791,45.6413c4.80347,10.21306 9.61681,20.42141 14.43805,30.6261c23.69599,50.15663 23.69599,50.15663 32.57138,69.33026c0.51087,1.10102 1.02174,2.20204 1.5481,3.33643c0.4585,0.9937 0.917,1.98741 1.3894,3.01123c0.4009,0.86762 0.8018,1.73524 1.21484,2.62915c0.84766,1.96069 0.84766,1.96069 0.84766,2.96069c-40.92,0 -81.84,0 -124,0c3.37431,-13.49725 3.37431,-13.49725 5.08472,-18.93018c0.38016,-1.2139 0.76033,-2.4278 1.15202,-3.67849c0.19773,-0.62565 0.39545,-1.2513 0.59917,-1.89591c0.62938,-1.9916 1.25438,-3.98453 1.8784,-5.97781c1.32055,-4.21542 2.64666,-8.42907 3.97319,-12.64261c1.54897,-4.92219 3.09564,-9.84509 4.63786,-14.76941c0.61585,-1.96289 1.2352,-3.92465 1.85474,-5.88638c0.37071,-1.18238 0.74142,-2.36477 1.12337,-3.58298c0.32848,-1.04302 0.65697,-2.08605 0.9954,-3.16067c0.79196,-2.36746 0.79196,-2.36746 0.70113,-4.47556c-2.11801,4.48216 -4.23561,8.96452 -6.35297,13.44699c-0.76375,1.6167 -1.52763,3.23333 -2.29162,4.84992c-4.32733,9.15643 -8.64686,18.31636 -12.94135,27.48825c-0.72847,1.55422 -1.45698,3.10842 -2.18554,4.66259c-1.04595,2.23126 -2.091,4.46291 -3.13306,6.69599c-0.96436,2.06648 -1.93195,4.13142 -2.90015,6.1961c-0.5464,1.1691 -1.0928,2.3382 -1.65576,3.54273c-0.50805,1.02875 -1.0161,2.0575 -1.53955,3.11743c-0.40424,0.87759 -0.80847,1.75518 -1.22496,2.65936c-1.77504,2.34064 -1.77504,2.34064 -4.4516,2.94191c-1.61549,-0.01665 -1.61549,-0.01665 -3.26363,-0.03364c-1.83155,-0.00057 -1.83155,-0.00057 -3.70011,-0.00115c-1.31882,-0.0258 -2.63764,-0.05161 -3.99642,-0.0782c-1.36333,-0.00933 -2.72668,-0.01644 -4.09004,-0.02144c-3.58598,-0.01908 -7.17094,-0.06818 -10.75652,-0.12352c-3.65973,-0.05117 -7.31962,-0.07399 -10.97961,-0.09918c-7.1795,-0.0536 -14.35816,-0.13892 -21.53711,-0.24414c4.94519,-11.25939 10.03148,-22.43708 15.3233,-33.53772c1.15846,-2.43013 2.31415,-4.86157 3.46918,-7.29333c1.20876,-2.54482 2.41766,-5.08956 3.62738,-7.63392c4.08312,-8.58806 8.14612,-17.18556 12.20514,-25.78503c0.34965,-0.74055 0.6993,-1.48109 1.05954,-2.24408c5.44504,-11.53257 10.87797,-23.07081 16.30576,-34.61151c5.86405,-12.46803 11.74443,-24.92831 17.63226,-37.38513c3.59647,-7.61054 7.18535,-15.22453 10.76025,-22.84522c0.71939,-1.53256 1.43879,-3.06511 2.15821,-4.59765c1.34175,-2.85849 2.6813,-5.71799 4.01953,-8.57813c4.0154,-8.5645 8.16783,-17.04834 12.43945,-25.48828zm-1,131c1,2 1,2 1,2l-1,-2z"/>
  <path id="svg_6" fill="#00A55E" d="m0,0c20.13,0 40.26,0 61,0c0,51.15 0,102.3 0,155c29.7,0 59.4,0 90,0c0,18.15 0,36.3 0,55c-49.83,0 -99.66,0 -151,0c0,-69.3 0,-138.6 0,-210z"/>
  <path id="svg_7" fill="#00A55E" d="m1222,0c19.8,0 39.6,0 60,0c0,51.15 0,102.3 0,155c29.7,0 59.4,0 90,0c0,18.15 0,36.3 0,55c-49.5,0 -99,0 -150,0c0,-69.3 0,-138.6 0,-210z"/>
  <path id="svg_8" fill="#00A55F" d="m1137,0c20.13,0 40.26,0 61,0c0,69.3 0,138.6 0,210c-20.13,0 -40.26,0 -61,0c0,-69.3 0,-138.6 0,-210z"/>
 </g>
</svg>